<svg width="330" height="260" viewBox="0 0 330 260" fill="none" xmlns="http://www.w3.org/2000/svg">
<path d="M296.221 130.002C296.221 131.169 296.206 132.333 296.175 133.493C296.175 134.095 296.137 134.693 296.11 135.29C295.471 151 291.849 166.444 285.438 180.803C285.056 181.618 284.702 182.433 284.317 183.24C284.084 183.739 283.848 184.23 283.604 184.725C281.343 189.337 278.797 193.804 275.981 198.1C269.919 207.379 262.653 215.815 254.372 223.187C252.83 224.56 251.252 225.896 249.638 227.196C248.464 228.14 247.274 229.063 246.067 229.964C224.988 245.693 199.476 254.374 173.168 254.77C146.859 255.166 121.097 247.256 99.5535 232.168C98.7492 231.605 97.9525 231.026 97.1635 230.447C94.3683 228.386 91.6671 226.214 89.0599 223.929L88.9951 223.872C86.9241 222.065 84.9166 220.188 82.9726 218.241C74.5396 209.833 67.3519 200.265 61.6272 189.827C60.0797 187.007 58.6414 184.121 57.3124 181.169C56.9312 180.297 56.5501 179.425 56.1689 178.546C55.8462 177.784 55.5311 177.015 55.2236 176.238C47.6684 157.303 44.8709 136.808 47.0756 116.544C49.2803 96.2798 56.4201 76.8633 67.8711 59.9914C79.3221 43.1196 94.7357 29.3058 112.765 19.7573C130.794 10.2089 150.89 5.21635 171.297 5.21606C216.949 5.21606 256.884 29.6973 278.672 66.1946C279.434 67.4637 280.174 68.7544 280.89 70.0666C282.227 72.4957 283.482 74.9743 284.656 77.5024C285.441 79.1814 286.181 80.8871 286.898 82.6042C293.075 97.6435 296.242 113.746 296.221 130.002Z" fill="#00A2A2"/>
<path opacity="0.7" d="M296.221 130.002C296.221 131.169 296.206 132.333 296.175 133.493C296.175 134.095 296.137 134.693 296.11 135.29C295.471 151 291.849 166.444 285.438 180.803C285.056 181.618 284.702 182.433 284.317 183.24C284.084 183.739 283.848 184.23 283.604 184.725C281.343 189.337 278.797 193.804 275.981 198.1C269.919 207.379 262.653 215.815 254.372 223.187C252.83 224.56 251.252 225.896 249.638 227.196C248.464 228.14 247.274 229.063 246.067 229.964C224.988 245.693 199.476 254.374 173.168 254.77C146.859 255.166 121.097 247.256 99.5535 232.168C98.7492 231.605 97.9525 231.026 97.1635 230.447C94.3683 228.386 91.6671 226.214 89.0599 223.929L88.9951 223.872C86.9241 222.065 84.9166 220.188 82.9726 218.241C74.5396 209.833 67.3519 200.265 61.6272 189.827C60.0797 187.007 58.6414 184.121 57.3124 181.169C56.9312 180.297 56.5501 179.425 56.1689 178.546C55.8462 177.784 55.5311 177.015 55.2236 176.238C47.6684 157.303 44.8709 136.808 47.0756 116.544C49.2803 96.2798 56.4201 76.8633 67.8711 59.9914C79.3221 43.1196 94.7357 29.3058 112.765 19.7573C130.794 10.2089 150.89 5.21635 171.297 5.21606C216.949 5.21606 256.884 29.6973 278.672 66.1946C279.434 67.4637 280.174 68.7544 280.89 70.0666C282.227 72.4957 283.482 74.9743 284.656 77.5024C285.441 79.1814 286.181 80.8871 286.898 82.6042C293.075 97.6435 296.242 113.746 296.221 130.002Z" fill="#DCE34C"/>
<path d="M288.254 175.389C286.98 174.08 286.022 172.497 285.454 170.762C284.885 169.027 284.72 167.184 284.973 165.376C285.098 164.529 285.178 163.676 285.213 162.821C285.289 159.939 286.028 153.09 291.167 151.376C291.167 151.376 308.891 141.797 312.535 149.8C312.535 149.8 320.539 162.048 302.457 178.542C302.457 178.542 295.638 185.083 288.254 175.389Z" fill="#00A2A2"/>
<path opacity="0.1" d="M288.254 175.389C286.98 174.08 286.022 172.497 285.454 170.762C284.885 169.027 284.72 167.184 284.973 165.376C285.098 164.529 285.178 163.676 285.213 162.821C285.289 159.939 286.028 153.09 291.167 151.376C291.167 151.376 308.891 141.797 312.535 149.8C312.535 149.8 320.539 162.048 302.457 178.542C302.457 178.542 295.638 185.083 288.254 175.389Z" fill="black"/>
<path d="M304.027 118.572C303.074 138.211 294.323 153.2 294.323 153.2C285.704 171.513 274.41 166.05 274.41 166.05C270.892 175.995 267.252 176.596 267.252 176.596C264.515 177.091 261.634 175.663 258.866 173.257C250.668 166.156 243.368 150.527 243.368 150.527C234.418 135.248 249.162 108.452 249.162 108.452C259.194 85.0942 273.564 83.0002 273.564 83.0002C299.785 75.7244 303.063 103.366 303.063 103.366C303.965 108.381 304.289 113.483 304.027 118.572Z" fill="#00A2A2"/>
<path opacity="0.1" d="M304.027 118.572C303.074 138.211 294.323 153.2 294.323 153.2C285.704 171.513 274.41 166.05 274.41 166.05C270.892 175.995 267.252 176.596 267.252 176.596C264.515 177.091 261.634 175.663 258.866 173.257C258.866 173.257 269.783 176.798 273.263 160.94C273.256 160.94 294.544 163.179 304.027 118.572Z" fill="#DCE34C"/>
<path d="M302.457 173.973C302.457 173.973 298.71 181.207 284.309 183.24L283.517 183.347L283.597 184.725C281.336 189.337 278.79 193.804 275.973 198.1V196.002C275.973 196.002 273.549 190.059 271.243 185.818L262.499 169.202L265.655 169.686C265.655 169.686 269.787 180.346 275.973 189.575L276.976 146.53C276.976 146.53 271.22 112.991 263.837 105.056H267.843C267.843 105.056 274.155 119.12 277.673 134.399V105.056H283.139C283.139 105.056 279.495 128.822 280.09 145.437L279.972 168.231C279.972 168.231 290.644 136.703 294.052 133.429L296.148 133.493L297.936 133.55C297.28 134.088 296.661 134.669 296.084 135.29C292.681 138.923 290.198 143.316 288.841 148.102C288.841 148.102 283.257 163.507 283.257 170.051L283.639 180.967C283.639 180.967 284.328 180.937 285.43 180.803C288.929 180.377 296.613 178.9 299.663 173.973H302.457Z" fill="#00A2A2"/>
<path d="M254.38 206.552V223.187C252.838 224.56 251.26 225.896 249.646 227.196V206.552H254.38Z" fill="#00A2A2"/>
<path d="M205.697 217.586C205.697 217.586 217.616 207.965 231.236 215.835C231.236 215.835 230.9 222.361 228.949 225.734C228.949 225.734 232.246 223.449 234.876 218.332C234.876 218.332 240.33 222.033 241.542 229.971L217.43 227.28L207.176 222.159L205.697 217.586Z" fill="#00A2A2"/>
<path opacity="0.1" d="M205.697 217.586C205.697 217.586 217.616 207.965 231.236 215.835C231.236 215.835 230.9 222.361 228.949 225.734C228.949 225.734 232.246 223.449 234.876 218.332C234.876 218.332 240.33 222.033 241.542 229.971L217.43 227.28L207.176 222.159L205.697 217.586Z" fill="#DCE34C"/>
<path d="M171.35 173.977C213.03 173.977 246.818 140.227 246.818 98.5951C246.818 56.9629 213.03 23.2134 171.35 23.2134C129.671 23.2134 95.8828 56.9629 95.8828 98.5951C95.8828 140.227 129.671 173.977 171.35 173.977Z" fill="#00A2A2"/>
<path d="M227.66 205.136C227.424 211.247 221.42 218.081 221.42 218.081V224.074L220.498 223.811L218.127 223.111V211.483C211.068 204.196 206.593 191.03 206.593 191.03L208.499 188.848C209.521 192.951 211.071 196.904 213.111 200.609L218.573 202.189V188.483L220.506 185.342L220.963 184.599V215.93C224.969 212.45 226.372 205.365 226.372 205.365L227.66 205.136Z" fill="#00A2A2"/>
<path opacity="0.1" d="M227.66 205.136C227.424 211.247 221.42 218.081 221.42 218.081V224.074L220.498 223.811V185.357L220.955 184.615V215.945C224.962 212.465 226.364 205.38 226.364 205.38L227.66 205.136Z" fill="black"/>
<path d="M129.807 221.352L139.572 201.675L174.026 179.456H183.658L191.655 195.172L204.409 211.43L208.209 221.352L170.771 230.535L129.807 221.352Z" fill="#00A2A2"/>
<path opacity="0.3" d="M146.083 220.103L150.695 202.353L183.658 179.456L191.655 195.172L153.409 209.671L146.083 220.103Z" fill="black"/>
<path opacity="0.1" d="M164.897 229.218L161.276 210.345L191.655 195.172L204.409 211.43L208.209 221.352L170.771 230.535L164.897 229.218Z" fill="black"/>
<path opacity="0.2" d="M150.695 202.353L139.572 201.675L174.026 179.456H183.658L150.695 202.353Z" fill="black"/>
<path opacity="0.2" d="M153.409 209.671L161.276 210.345L191.655 195.172L153.409 209.671Z" fill="black"/>
<path d="M139.957 203.396V203.419C139.645 203.979 139.302 204.561 138.94 205.098C136.466 208.886 132.841 212.541 127.607 215.759C126.432 216.484 125.144 217.009 123.796 217.312C122.196 217.674 120.578 217.944 118.947 218.119C116.672 218.367 114.37 218.142 112.185 217.46C106.376 215.637 95.3758 209.869 92.2808 192.085C92.2808 192.085 90.6837 181.001 96.2411 171.711C98.2619 168.405 99.5246 164.693 99.9384 160.841C100.277 157.388 100.006 153.902 99.138 150.543C99.138 150.543 90.8323 123.453 115.601 117.419C117.297 117.004 119.056 116.905 120.788 117.125C122.198 117.3 123.571 117.693 124.859 118.291C130.089 120.704 137.51 126.518 137.948 140.129C138.017 143.148 137.632 146.161 136.805 149.065C135.627 153.36 134.137 162.269 138.882 170.52C139.615 171.772 140.252 173.078 140.788 174.426C142.896 179.813 146.304 192.024 139.957 203.396Z" fill="#00A2A2"/>
<path opacity="0.1" d="M139.957 203.396V203.419C139.645 203.979 139.302 204.561 138.94 205.098C136.466 208.886 132.841 212.541 127.607 215.759C126.432 216.484 125.144 217.009 123.796 217.312C122.196 217.674 120.578 217.944 118.947 218.119C116.672 218.367 114.37 218.142 112.185 217.46C106.376 215.637 95.3758 209.869 92.2808 192.085C92.2808 192.085 90.6837 181.001 96.2411 171.711C98.2619 168.405 99.5246 164.693 99.9384 160.841C100.277 157.388 100.006 153.902 99.138 150.543C99.138 150.543 90.8323 123.453 115.601 117.419C117.297 117.004 119.056 116.905 120.788 117.125C122.198 117.3 123.571 117.693 124.859 118.291C130.089 120.704 137.51 126.518 137.948 140.129C138.017 143.148 137.632 146.161 136.805 149.065C135.627 153.36 134.137 162.269 138.882 170.52C139.615 171.772 140.252 173.078 140.788 174.426C142.896 179.813 146.304 192.024 139.957 203.396Z" fill="#DCE34C"/>
<path opacity="0.1" d="M139.957 203.396V203.419L138.94 205.098C136.466 208.886 132.841 212.541 127.607 215.759C126.432 216.484 125.144 217.009 123.796 217.312C122.196 217.674 120.578 217.944 118.947 218.119C116.672 218.367 114.37 218.142 112.185 217.46C106.376 215.637 95.3758 209.869 92.2808 192.085C92.2808 192.085 90.6837 181.001 96.2411 171.711C98.2619 168.405 99.5246 164.693 99.9384 160.841C100.277 157.388 100.006 153.902 99.138 150.543C99.138 150.543 90.8323 123.453 115.601 117.419C117.297 117.004 119.056 116.905 120.788 117.125C119.016 117.7 111.915 120.811 111.8 133.569C111.798 135.933 112.17 138.282 112.902 140.529C113.752 143.229 114.396 148.814 109.723 156.836C108.097 159.572 107.188 162.672 107.078 165.852C106.944 171.315 108.751 178.877 118.303 183.404C119.708 184.055 121.188 184.532 122.709 184.824C126.837 185.665 138.036 189.195 139.957 203.396Z" fill="#DCE34C"/>
<path d="M89.0637 223.929L88.9989 223.872C86.9279 222.065 84.9204 220.188 82.9765 218.241L83.7121 168.719L87.6686 167.618C87.6686 167.618 89.098 214.948 89.0637 223.929Z" fill="#00A2A2"/>
<path d="M69.5708 153.303L65.275 167.618C62.7174 176.642 62.401 189.153 62.401 189.153L61.6387 189.827C60.0911 187.007 58.6529 184.121 57.3239 181.169V178.858C56.9427 178.766 56.5615 178.664 56.1803 178.546C46.3881 175.473 43.1673 163.617 43.1673 163.617L44.6271 162.612C46.6359 172.252 52.1781 175.286 55.2351 176.238C55.9144 176.458 56.6164 176.599 57.3277 176.661C59.5003 155.484 52.3001 131.757 52.3001 131.757L54.446 129.751C55.5895 133.219 58.1472 146.724 58.1472 146.724L57.8765 129.751H60.6057L60.0568 182.501L67.6421 154.662L69.5708 153.303Z" fill="#00A2A2"/>
<path d="M56.3671 160.053C56.2088 160.934 55.9531 161.795 55.6048 162.619C54.5185 165.079 52.8794 165.772 51.3624 165.764C50.0096 165.689 48.701 165.257 47.5698 164.512C43.4417 161.679 38.1587 166.259 38.1587 166.259C38.1587 166.259 27.5584 173.112 23.9983 164.71C23.0249 162.865 22.4337 160.844 22.2602 158.766C22.0726 156.708 22.3527 154.633 23.0797 152.697C23.6073 151.315 24.3467 150.023 25.2714 148.867C26.7732 147.006 28.6625 145.493 30.8083 144.434C32.954 143.375 35.3048 142.794 37.6975 142.734C43.0339 142.54 51.3548 143.811 55.1321 150.466C57.5564 154.761 56.3671 160.053 56.3671 160.053Z" fill="#00A2A2"/>
<path opacity="0.3" d="M56.3671 160.053C56.2088 160.934 55.9531 161.795 55.6048 162.619C54.5185 165.079 52.8794 165.772 51.3624 165.764C50.0096 165.689 48.701 165.257 47.5698 164.512C43.4417 161.679 38.1587 166.259 38.1587 166.259C38.1587 166.259 27.5584 173.112 23.9983 164.71C23.0249 162.865 22.4337 160.844 22.2602 158.766C22.0726 156.708 22.3527 154.633 23.0797 152.697C23.6073 151.315 24.3467 150.023 25.2714 148.867C26.7732 147.006 28.6625 145.493 30.8083 144.434C32.954 143.375 35.3048 142.794 37.6975 142.734C43.0339 142.54 51.3548 143.811 55.1321 150.466C57.5564 154.761 56.3671 160.053 56.3671 160.053Z" fill="#DCE34C"/>
<path opacity="0.3" d="M56.3671 160.053C56.2088 160.934 55.9531 161.795 55.6048 162.619C55.5476 154.182 49.8339 149.884 49.8339 149.884C39.7787 140.491 23.0797 152.713 23.0797 152.713C23.6059 151.325 24.3453 150.028 25.2714 148.867C26.7732 147.006 28.6625 145.493 30.8083 144.434C32.954 143.375 35.3048 142.794 37.6975 142.734C43.0339 142.54 51.3548 143.811 55.1321 150.466C57.5564 154.761 56.3671 160.053 56.3671 160.053Z" fill="#DCE34C"/>
<path d="M97.1978 118.435C97.0503 120.806 96.6983 123.16 96.1458 125.471C96.0975 125.687 96.0442 125.908 95.9857 126.134C93.653 135.248 86.933 147.546 67.7602 133.615C67.7602 133.615 59.588 127.626 45.4962 135.899C45.4962 135.899 33.1654 144.356 25.2562 135.899C25.2562 135.899 11.4998 122.163 17.0039 103.708C18.5934 98.3781 21.7838 92.667 27.3831 86.7504C27.7643 86.3507 28.1455 85.9433 28.5647 85.5397C28.5647 85.5397 40.3428 72.8574 62.7898 77.6356C62.786 77.6318 105.111 81.6752 97.1978 118.435Z" fill="#00A2A2"/>
<path opacity="0.1" d="M97.1978 118.435C97.0503 120.806 96.6983 123.16 96.1458 125.471C96.0975 125.687 96.0442 125.908 95.9857 126.134C93.653 135.248 86.933 147.546 67.7602 133.615C67.7602 133.615 59.588 127.626 45.4962 135.899C45.4962 135.899 33.1654 144.356 25.2562 135.899C25.2562 135.899 11.4998 122.163 17.0039 103.708C18.5934 98.3781 21.7838 92.667 27.3831 86.7504C27.7643 86.3507 28.1455 85.9433 28.5647 85.5397C28.5647 85.5397 40.3428 72.8574 62.7898 77.6356C62.786 77.6318 105.111 81.6752 97.1978 118.435Z" fill="#DCE34C"/>
<path opacity="0.1" d="M95.9819 126.134C93.6492 135.248 86.9292 147.546 67.7564 133.615C67.7564 133.615 59.5842 127.626 45.4924 135.899C45.4924 135.899 33.1616 144.356 25.2524 135.899C25.2524 135.899 11.496 122.163 17.0001 103.708C17.0001 103.708 18.075 140.346 43.8381 129.758C43.8381 129.758 56.7178 121.805 75.1168 128.391C75.1168 128.391 88.8388 137.548 95.8866 125.882L95.9819 126.134Z" fill="#DCE34C"/>
<path opacity="0.2" d="M97.1978 118.435C97.0503 120.806 96.6983 123.16 96.1458 125.471C93.8283 129.096 92.0749 129.998 92.0749 129.998C91.9835 122.265 90.8819 115.568 89.2581 110.234C84.7298 95.3436 71.1831 85.0181 55.62 84.3213C40.9069 83.6627 27.3831 86.7504 27.3831 86.7504C27.7643 86.3507 28.1454 85.9433 28.5647 85.5397C28.5647 85.5397 40.3428 72.8574 62.7898 77.6356C62.786 77.6318 105.111 81.6752 97.1978 118.435Z" fill="#DCE34C"/>
<path d="M63.3463 145.536C63.3463 145.536 62.6107 134.544 73.6188 134.521C73.6188 134.521 83.796 135.854 82.0502 147.664C82.0502 147.664 81.1697 155.05 75.7457 152.461L63.3463 145.536Z" fill="#00A2A2"/>
<path opacity="0.3" d="M63.3463 145.536C63.3463 145.536 62.6107 134.544 73.6188 134.521C73.6188 134.521 83.796 135.854 82.0502 147.664C82.0502 147.664 81.1697 155.05 75.7457 152.461L63.3463 145.536Z" fill="#DCE34C"/>
<path d="M111.034 217.065L110.604 227.634L99.5497 232.168C98.7454 231.605 97.9487 231.026 97.1597 230.447C94.3442 228.369 91.6214 226.177 88.9913 223.872L88.9379 215.115L93.733 213.211C93.733 213.211 91.6175 222.817 92.0673 222.73C92.5171 222.642 97.316 210.84 97.316 210.84H100.628L99.866 222.73L103.933 213.101C103.933 213.101 106.228 215.188 111.034 217.065Z" fill="#00A2A2"/>
<path d="M276.991 208.216H227.66C235.638 205.993 241.1 193.866 244.264 184.177C245.611 180.063 246.725 175.878 247.599 171.639H232.486C237.106 165.928 241.024 154.506 241.024 154.506H237.525C239.64 152.728 241.718 149.065 243.361 145.551C244.657 142.753 245.81 139.891 246.818 136.977H231.506C235.284 134.456 239.892 123.419 239.892 123.419H232.894C240.666 121.557 245.674 109.233 248.651 98.1458C250.224 92.203 251.432 86.1698 252.268 80.0799C252.281 79.9821 252.329 79.8921 252.403 79.8275C252.478 79.7628 252.574 79.728 252.672 79.7297C252.772 79.73 252.869 79.767 252.943 79.8337C253.018 79.9004 253.065 79.9921 253.076 80.0914C257.029 114.114 272.455 123.419 272.455 123.419H265.099C265.511 124.655 266.021 125.857 266.623 127.013C268.734 131.121 272.003 134.521 276.027 136.794H258.325C262.285 152.423 272.089 157.883 272.089 157.883H265.487C265.868 158.995 266.28 160.011 266.707 160.952C270.923 170.238 276.999 171.643 276.999 171.643H257.193C264.782 191.274 270.019 194.133 271.895 194.468H264.912C264.992 194.67 265.076 194.868 265.156 195.066C270.248 207.341 276.991 208.216 276.991 208.216Z" fill="#00A2A2"/>
<path opacity="0.2" d="M276.991 208.216H227.66C235.638 205.993 241.1 193.866 244.264 184.177C245.611 180.063 246.725 175.878 247.599 171.639H232.486C237.106 165.928 241.024 154.506 241.024 154.506H237.525C239.64 152.728 241.718 149.065 243.361 145.551C244.657 142.753 245.81 139.891 246.818 136.977H231.506C235.284 134.456 239.892 123.419 239.892 123.419H232.894C240.666 121.557 245.674 109.233 248.651 98.1458C250.224 92.203 251.432 86.1698 252.268 80.0799C252.281 79.9821 252.329 79.8921 252.403 79.8275C252.478 79.7628 252.574 79.728 252.672 79.7297C252.772 79.73 252.869 79.767 252.943 79.8337C253.018 79.9004 253.065 79.9921 253.076 80.0914C257.029 114.114 272.455 123.419 272.455 123.419H265.099C265.511 124.655 266.021 125.857 266.623 127.013C268.734 131.121 272.003 134.521 276.027 136.794H258.325C262.285 152.423 272.089 157.883 272.089 157.883H265.487C265.868 158.995 266.28 160.011 266.707 160.952C270.923 170.238 276.999 171.643 276.999 171.643H257.193C264.782 191.274 270.019 194.133 271.895 194.468H264.912C264.992 194.67 265.076 194.868 265.156 195.066C270.248 207.341 276.991 208.216 276.991 208.216Z" fill="black"/>
<path opacity="0.2" d="M265.11 123.4C265.522 124.636 266.032 125.838 266.635 126.994C264.203 122.677 261.718 118.565 260.117 115.953C259.146 114.362 258.024 112.869 256.766 111.494C251.845 106.164 249.642 101.325 248.659 98.1154C250.232 92.1726 251.44 86.1394 252.276 80.0495C252.288 79.9516 252.336 79.8617 252.411 79.797C252.485 79.7324 252.581 79.6975 252.68 79.6992C252.78 79.6995 252.877 79.7365 252.951 79.8032C253.025 79.8699 253.073 79.9616 253.084 80.0609C257.037 114.083 272.463 123.389 272.463 123.389L265.11 123.4Z" fill="black"/>
<path opacity="0.2" d="M265.487 157.872C265.868 158.983 266.28 160 266.707 160.94C266.707 160.94 253.534 157.971 250.134 153.2C250.134 153.2 246.196 149.179 243.364 145.532C244.66 142.734 245.814 139.872 246.822 136.958L258.329 136.783C262.289 152.412 272.093 157.872 272.093 157.872H265.487Z" fill="black"/>
<path opacity="0.2" d="M264.912 194.457C264.992 194.658 265.076 194.856 265.156 195.054C265.007 194.99 260.258 192.854 256.553 192.854C256.553 192.854 251.342 193.493 248.167 188.041C247.447 186.765 246.461 185.658 245.274 184.797C244.947 184.563 244.601 184.356 244.241 184.177C245.588 180.064 246.702 175.878 247.576 171.639H257.166C264.755 191.27 269.993 194.129 271.868 194.464L264.912 194.457Z" fill="black"/>
<path d="M284.656 77.5024H208.282C212.395 75.8098 215.953 73.0005 218.55 69.3927C222.434 63.0839 223.65 63.6322 223.65 63.6322C226.078 62.9621 228.872 67.8736 228.872 67.8736C232.33 72.0617 234.453 72.6023 234.453 72.6023C239.675 75.5758 246.524 68.0563 246.524 68.0563C254.285 59.3223 256.435 58.5875 256.435 58.5875C262.873 53.2572 269.127 62.726 269.127 62.726C272.68 68.8178 277.612 66.6628 277.612 66.6628C277.974 66.4953 278.329 66.3354 278.672 66.1945C279.434 67.4637 280.174 68.7543 280.89 70.0666C282.229 72.4957 283.485 74.9743 284.656 77.5024Z" fill="#DCE34C"/>
<path d="M154.754 49.7544H75.6275C78.7926 45.9876 82.1769 42.4102 85.7628 39.0405C86.9368 39.3946 90.9124 40.1295 93.9045 34.9781C93.9045 34.9781 100.167 25.5245 106.597 30.8433C106.597 30.8433 108.747 31.5781 116.508 40.3084C116.508 40.3084 123.369 47.8317 128.576 44.8582C128.576 44.8582 130.702 44.3137 134.164 40.1294C134.164 40.1294 136.954 35.218 139.382 35.8843C139.382 35.8843 140.598 35.3398 144.482 41.6448C147.079 45.2543 150.638 48.0639 154.754 49.7544Z" fill="#DCE34C"/>
<path d="M224.07 207.283C224.07 207.283 204.809 213.425 195.92 194.175C195.92 194.175 215.81 208.726 221.325 189.808C221.325 189.808 211.461 196.113 194.788 191.426C194.788 191.426 189.326 180.746 192.882 160.373C193.137 158.865 193.449 157.307 193.82 155.698C194.316 153.52 194.91 151.239 195.619 148.871C195.619 148.871 199.05 148.924 205.667 142.364C205.667 142.364 200.712 143.537 197.727 141.454C199.424 136.9 201.596 132.537 204.207 128.437C207.5 123.404 211.884 118.717 216.991 118.192C219.191 118.061 221.391 118.453 223.41 119.334C226.129 120.531 228.329 122.661 229.612 125.338C229.612 125.338 226.231 126.48 223.513 126.427C223.513 126.427 225.972 133.017 233.145 131.186C233.145 131.186 241.34 149.256 243.292 157.837C243.292 157.837 234.312 161.869 233.145 166.157L244.332 162.65L245.632 169.145C245.632 169.145 239.255 170.219 239.385 173.973C239.385 173.973 241.443 172.168 245.994 171.928C245.941 171.932 253.046 204.854 224.07 207.283Z" fill="#00A2A2"/>
<path opacity="0.1" d="M224.07 207.283C224.07 207.283 204.809 213.425 195.92 194.175C195.92 194.175 215.81 208.726 221.325 189.808C221.325 189.808 211.461 196.113 194.788 191.426C194.788 191.426 189.326 180.746 192.882 160.373C193.137 158.865 193.449 157.307 193.82 155.698C194.316 153.52 194.91 151.239 195.619 148.871C195.619 148.871 199.05 148.924 205.667 142.364C205.667 142.364 200.712 143.537 197.727 141.454C199.424 136.9 201.596 132.537 204.207 128.437C207.5 123.404 211.884 118.717 216.991 118.192C219.191 118.061 221.391 118.453 223.41 119.334C226.129 120.531 228.329 122.661 229.612 125.338C229.612 125.338 226.231 126.48 223.513 126.427C223.513 126.427 225.972 133.017 233.145 131.186C233.145 131.186 241.34 149.256 243.292 157.837C243.292 157.837 234.312 161.869 233.145 166.157L244.332 162.65L245.632 169.145C245.632 169.145 239.255 170.219 239.385 173.973C239.385 173.973 241.443 172.168 245.994 171.928C245.941 171.932 253.046 204.854 224.07 207.283Z" fill="black"/>
<path opacity="0.1" d="M211.285 148.589C211.285 148.589 203.662 159.2 192.852 160.392C193.106 158.884 193.419 157.326 193.79 155.717C199.884 154.042 205.757 151.649 211.285 148.589Z" fill="black"/>
<path opacity="0.1" d="M223.364 119.345C220.837 119.033 218.558 119.962 216.919 120.959C215.613 121.777 214.474 122.834 213.561 124.074C209.12 129.975 204.161 128.452 204.161 128.452C207.454 123.419 211.838 118.732 216.946 118.207C219.145 118.075 221.345 118.465 223.364 119.345Z" fill="black"/>
<path opacity="0.1" d="M216.622 170.569C216.622 170.569 221.466 152.252 230.805 153.219C230.991 153.239 231.169 153.304 231.324 153.409C231.479 153.513 231.605 153.654 231.693 153.819C231.781 153.984 231.827 154.168 231.827 154.355C231.827 154.542 231.781 154.726 231.693 154.891C231.171 155.827 230.001 157.247 227.412 159.216C226.921 159.596 226.44 159.977 225.979 160.392C223.94 162.227 218.604 167.143 216.622 170.569Z" fill="black"/>
<path opacity="0.1" d="M220.498 176.6C220.498 176.6 223.929 165.62 228.933 166.747C229.038 166.769 229.137 166.815 229.221 166.882C229.306 166.948 229.374 167.032 229.42 167.129C229.467 167.226 229.491 167.332 229.491 167.439C229.49 167.546 229.465 167.652 229.417 167.748C229.208 168.193 228.701 168.833 227.592 169.716C227.592 169.716 223.242 172.789 220.498 176.6Z" fill="black"/>
<path opacity="0.1" d="M235.6 192.085C235.6 192.085 238.821 197.624 242.804 196.729C243.645 195.428 244.306 194.019 244.771 192.541C244.771 192.541 237.944 193.055 235.6 192.085Z" fill="black"/>
<path d="M115.738 225.715L117.06 135.427C117.064 135.185 117.162 134.954 117.335 134.785C117.508 134.615 117.741 134.52 117.983 134.521C118.226 134.522 118.458 134.619 118.63 134.79C118.802 134.961 118.9 135.193 118.902 135.435L119.744 226.198L115.738 225.715Z" fill="#00A2A2"/>
<path d="M118.772 196.973C118.772 196.973 127.001 191.213 131.732 170.676C132.307 168.172 132.681 165.625 132.848 163.061C133.024 160.396 133.298 155.976 133.668 149.298C133.681 149.104 133.766 148.923 133.908 148.791C134.05 148.659 134.236 148.585 134.43 148.586C134.633 148.586 134.826 148.666 134.969 148.809C135.112 148.951 135.193 149.145 135.193 149.347C135.235 154.795 134.842 188.563 118.802 201.473L118.772 196.973Z" fill="#00A2A2"/>
<path d="M116.832 207.04V209.587C116.832 209.587 105.176 205.825 107.726 168.719C107.726 168.719 106.27 200.853 116.832 207.04Z" fill="#00A2A2"/>
<path d="M117.781 195.401C111.789 215.606 101.852 199.075 101.852 199.075C95.6236 207.329 92.0749 181.881 92.0749 181.881C86.7958 186.644 85.9953 173.996 85.9953 173.996C84.5659 187.775 80.2778 181.9 80.2778 181.9C75.5132 209.145 69.952 199.094 69.952 199.094C60.0988 213.322 55.357 198.896 54.4803 195.762C54.4364 195.603 54.4457 195.433 54.5069 195.279C54.5681 195.125 54.6779 194.996 54.8196 194.91C55.3913 194.567 56.4281 193.923 57.747 192.972C61.4595 190.306 67.3905 185.216 71.4004 177.799C85.0157 152.625 84.6384 133.634 84.6384 133.634H86.6242C89.6736 154.133 93.9045 162.993 93.9045 162.993C97.7772 176.958 105.549 185.722 111.191 190.512C113.182 192.244 115.341 193.775 117.636 195.081C117.692 195.111 117.736 195.159 117.762 195.217C117.788 195.274 117.795 195.339 117.781 195.401Z" fill="#00A2A2"/>
<path opacity="0.3" d="M117.781 195.401C111.789 215.606 101.852 199.075 101.852 199.075C95.6236 207.329 92.0749 181.881 92.0749 181.881C86.7958 186.644 85.9953 173.996 85.9953 173.996C84.5659 187.775 80.2778 181.9 80.2778 181.9C75.5132 209.145 69.952 199.094 69.952 199.094C60.0988 213.322 55.357 198.896 54.4803 195.762C54.4364 195.603 54.4457 195.433 54.5069 195.279C54.5681 195.125 54.6779 194.996 54.8196 194.91C55.3913 194.567 56.4281 193.923 57.747 192.972C61.4595 190.306 67.3905 185.216 71.4004 177.799C85.0157 152.625 84.6384 133.634 84.6384 133.634H86.6242C89.6736 154.133 93.9045 162.993 93.9045 162.993C97.7772 176.958 105.549 185.722 111.191 190.512C113.182 192.244 115.341 193.775 117.636 195.081C117.692 195.111 117.736 195.159 117.762 195.217C117.788 195.274 117.795 195.339 117.781 195.401Z" fill="black"/>
<path opacity="0.3" d="M117.781 195.401C111.789 215.606 101.852 199.075 101.852 199.075C95.6236 207.329 92.0749 181.881 92.0749 181.881C86.7958 186.644 85.9953 173.996 85.9953 173.996C84.5659 187.775 80.2778 181.9 80.2778 181.9C75.5132 209.145 69.952 199.094 69.952 199.094C60.0988 213.322 55.357 198.896 54.4803 195.762C54.4364 195.603 54.4457 195.433 54.5069 195.279C54.5681 195.125 54.6779 194.996 54.8196 194.91C55.3913 194.567 56.4281 193.923 57.747 192.972C57.9337 192.903 64.2764 190.664 68.7551 195.656C68.7551 195.656 66.6358 186.004 75.1053 181.9C75.1053 181.9 78.6807 179.916 80.3998 177.141C80.3998 177.141 85.1262 167.938 90.0014 174.495C90.4997 175.177 90.9 175.925 91.1906 176.718C92.0711 179.044 94.6211 185.334 97.5828 189.027C98.1784 189.762 98.9565 190.328 99.8393 190.668C101.378 191.302 102.681 192.397 103.571 193.802C103.571 193.802 107.867 191.201 111.194 190.512C113.186 192.244 115.345 193.775 117.64 195.081C117.695 195.112 117.738 195.16 117.763 195.218C117.789 195.275 117.795 195.339 117.781 195.401Z" fill="black"/>
<path d="M115.738 148.589C115.318 149.919 114.8 151.216 114.186 152.469C108.469 163.864 100.525 151.997 100.525 151.997C96.0238 159.535 90.8628 138.374 90.8628 138.374C88.0803 141.02 86.7615 134.521 86.7615 134.521C82.9269 141.645 80.6628 138.245 80.6628 138.245C76.1612 160.461 71.5147 152.13 71.5147 152.13C62.0351 165.54 56.7445 148.78 56.6911 148.593C80.9143 137.384 85.1529 97.9174 85.1529 97.9174L86.2088 94.3461C86.8606 106.248 92.0559 118.808 92.0559 118.808C99.7707 144.592 115.738 148.589 115.738 148.589Z" fill="#00A2A2"/>
<path opacity="0.3" d="M115.738 148.589C115.318 149.919 114.8 151.216 114.186 152.469C108.469 163.864 100.525 151.997 100.525 151.997C96.0238 159.535 90.8628 138.374 90.8628 138.374C88.0803 141.02 86.7615 134.521 86.7615 134.521C82.9269 141.645 80.6628 138.245 80.6628 138.245C76.1612 160.461 71.5147 152.13 71.5147 152.13C62.0351 165.54 56.7445 148.78 56.6911 148.593C80.9143 137.384 85.1529 97.9174 85.1529 97.9174L86.2088 94.3461C86.8606 106.248 92.0559 118.808 92.0559 118.808C99.7707 144.592 115.738 148.589 115.738 148.589Z" fill="black"/>
<path opacity="0.3" d="M114.186 152.469C108.469 163.864 100.525 151.997 100.525 151.997C96.0238 159.536 90.8628 138.374 90.8628 138.374C88.0803 141.02 86.7615 134.521 86.7615 134.521C82.9269 141.645 80.6628 138.245 80.6628 138.245C76.1612 160.461 71.5147 152.13 71.5147 152.13C62.0351 165.54 56.7445 148.78 56.6911 148.593C56.9122 148.738 68.5073 156.265 72.319 146.842C72.319 146.842 73.9085 140.369 77.8802 138.245C77.8802 138.245 81.4518 135.58 82.9079 131.369C82.9079 131.369 84.7641 125.547 87.1464 130.177C87.1464 130.177 87.9393 132.918 90.0586 134.521C90.0586 134.521 92.3113 134.316 93.2375 139.985C93.2375 139.985 93.9427 142.616 95.879 142.079C95.879 142.079 97.8039 140.274 98.3375 146.918C98.3375 146.918 99.725 151.822 104.093 151.578C104.101 151.578 110.764 149.107 114.186 152.469Z" fill="black"/>
<path d="M112.445 109.02C111.507 111.685 110.398 113.341 109.228 114.278C104.783 117.853 99.4696 111.136 99.4696 111.136C93.9084 116.425 90.7332 101.237 90.7332 101.237C88.4805 104.146 85.4502 98.6141 85.4502 98.6141C84.6879 102.867 81.4632 100.975 81.4632 100.975C77.095 117.765 72.9251 111.289 72.9251 111.289C63.3196 121.188 59.6223 108.909 59.6223 108.909C59.6223 108.909 79.2143 104.279 86.2278 68.9701C86.2278 68.9701 89.807 96.8741 106.754 106.282L112.445 109.02Z" fill="#00A2A2"/>
<path opacity="0.3" d="M112.445 109.02C111.507 111.685 110.398 113.341 109.228 114.278C104.783 117.853 99.4696 111.136 99.4696 111.136C93.9084 116.425 90.7332 101.237 90.7332 101.237C88.4805 104.146 85.4502 98.6141 85.4502 98.6141C84.6879 102.867 81.4632 100.975 81.4632 100.975C77.095 117.765 72.9251 111.289 72.9251 111.289C63.3196 121.188 59.6223 108.909 59.6223 108.909C59.6223 108.909 79.2143 104.279 86.2278 68.9701C86.2278 68.9701 89.807 96.8741 106.754 106.282L112.445 109.02Z" fill="black"/>
<path opacity="0.3" d="M109.224 114.278C104.779 117.853 99.4658 111.137 99.4658 111.137C93.9045 116.425 90.7294 101.237 90.7294 101.237C88.4767 104.146 85.4464 98.6141 85.4464 98.6141C84.6841 102.867 81.4594 100.975 81.4594 100.975C77.0912 117.765 72.9212 111.289 72.9212 111.289C63.3158 121.188 59.6185 108.909 59.6185 108.909C59.6185 108.909 69.4145 113.931 74.0495 106.526C74.0495 106.526 76.9616 99.2919 81.063 98.6141C81.063 98.6141 85.2863 96.4782 86.224 89.4765C86.224 89.4765 87.0207 94.3689 90.333 96.2193C90.333 96.2193 92.7649 97.1483 95.231 104.683C95.231 104.683 95.8904 108.917 99.3362 107.462C99.3362 107.462 105.435 106.8 107.81 112.222C108.113 113.008 108.597 113.713 109.224 114.278Z" fill="black"/>
<path d="M246.074 229.964C224.592 245.994 198.517 254.696 171.703 254.783C144.888 254.87 118.757 246.338 97.1712 230.447H97.1216H97.1673H97.2245H97.3351C97.3737 230.444 97.4119 230.438 97.4494 230.428L97.9907 230.348L98.2842 230.303L99.157 230.154L99.3476 230.12H99.4277L99.9079 230.032H99.9499C100.51 229.933 101.12 229.812 101.772 229.652C101.936 229.621 102.1 229.583 102.267 229.545L102.782 229.431C103.163 229.343 103.544 229.256 103.925 229.157C104.307 229.058 104.829 228.932 105.294 228.803C105.991 228.616 106.708 228.422 107.432 228.19L108.454 227.866L109.056 227.664H109.102C109.864 227.398 110.645 227.112 111.415 226.804C111.621 226.724 111.823 226.644 112.025 226.556C112.227 226.469 112.521 226.347 112.765 226.24C112.765 226.24 124.688 220.746 141.551 219.733C145.549 219.502 149.558 219.93 153.416 221.001C158.57 222.418 166.235 224.809 171.77 227.752C171.77 227.752 187.801 219.509 206.787 220.358L207.428 220.388C209.078 220.48 210.752 220.64 212.433 220.883L213.061 220.978C213.565 221.055 214.072 221.142 214.586 221.234C214.994 221.314 215.406 221.39 215.821 221.477C216.149 221.546 216.481 221.622 216.812 221.698C217.029 221.744 217.243 221.797 217.46 221.85L218.181 222.029L218.714 222.17C219.019 222.25 219.32 222.338 219.621 222.425L220.342 222.638L221.062 222.867L221.661 223.065C221.943 223.156 222.229 223.255 222.511 223.358C222.793 223.461 222.987 223.526 223.223 223.617C223.46 223.708 223.704 223.796 223.94 223.891L224.058 223.937L224.66 224.18L225.152 224.386C225.709 224.618 226.257 224.866 226.81 225.125C226.822 225.083 236.831 229.869 246.074 229.964Z" fill="#00A2A2"/>
<path opacity="0.4" d="M246.074 229.964C224.592 245.994 198.517 254.696 171.703 254.783C144.888 254.87 118.757 246.338 97.1712 230.447H97.2245H97.3351L97.4494 230.428L97.9907 230.348L98.2842 230.303L99.1571 230.154L99.3476 230.12H99.4277L99.9079 230.032H99.9499C100.51 229.93 101.12 229.812 101.772 229.652C101.936 229.621 102.1 229.583 102.267 229.545L102.782 229.431C103.163 229.343 103.544 229.256 103.925 229.157C104.307 229.058 104.829 228.928 105.294 228.803C105.991 228.616 106.708 228.422 107.432 228.19C107.771 228.087 108.111 227.976 108.454 227.866L109.056 227.664H109.102C109.864 227.398 110.645 227.112 111.415 226.804C111.621 226.724 111.823 226.644 112.025 226.556C112.227 226.469 112.521 226.347 112.765 226.24C112.765 226.24 124.688 220.746 141.551 219.733C145.549 219.502 149.558 219.93 153.416 221.001C158.57 222.418 166.235 224.809 171.77 227.752C171.77 227.752 187.801 219.509 206.787 220.358L207.428 220.388C209.078 220.48 210.752 220.64 212.433 220.883L213.061 220.978C213.565 221.055 214.072 221.142 214.586 221.234C214.994 221.314 215.406 221.39 215.821 221.477C216.149 221.546 216.481 221.622 216.812 221.698C217.029 221.744 217.243 221.797 217.46 221.85L218.181 222.029L218.714 222.17C219.019 222.25 219.32 222.338 219.621 222.425L220.342 222.638L221.062 222.867L221.661 223.065C221.943 223.156 222.229 223.255 222.511 223.358C222.793 223.461 222.987 223.526 223.223 223.617C223.46 223.708 223.704 223.796 223.94 223.891L224.058 223.937L224.66 224.18L225.152 224.386C225.709 224.618 226.257 224.866 226.81 225.125C226.822 225.083 236.831 229.869 246.074 229.964Z" fill="#DCE34C"/>
<path opacity="0.4" d="M224.07 223.895C199.911 219.303 181.661 230.535 181.661 230.535C167.558 235.736 155.547 227.634 155.547 227.634C141.741 219.159 110.413 227.28 109.117 227.634C110.341 227.211 111.575 226.743 112.78 226.21C112.78 226.21 124.703 220.716 141.566 219.703C145.564 219.472 149.573 219.9 153.432 220.971C158.585 222.387 166.25 224.778 171.785 227.721C171.785 227.71 198.695 213.874 224.07 223.895Z" fill="#DCE34C"/>
<path d="M186.772 92.8612C188.716 93.6205 190.538 94.6595 192.181 95.9452C194.205 97.4681 196.092 99.1167 196.656 99.4441C197.22 99.7716 196.336 98.1915 194.388 96.5962C194.609 96.0327 193.538 95.1837 192.844 94.8144C193.729 94.94 193.732 93.8321 191.083 92.3929C191.701 92.3625 191.556 91.5439 188.533 90.3484C190.39 90.8852 190.95 90.3484 187.622 89.2062C187.821 88.8673 185.865 87.7898 181.268 87.7403C182.627 87.6604 183.988 87.6604 185.347 87.7403C186.688 87.8089 186.99 87.5842 185.949 87.2682C184.908 86.9522 182.85 86.8875 180.75 87.0322C181.927 86.8148 183.116 86.6673 184.31 86.5905C185.488 86.5334 185.884 86.4154 185.309 86.2098C184.733 86.0042 182.568 85.829 179.077 86.7771C179.953 86.4405 180.852 86.1669 181.768 85.9585C182.507 85.8176 183.826 85.4978 182.686 85.4179C181.547 85.3379 178.65 85.9851 176.427 86.6552C177.465 86.1285 178.542 85.6818 179.648 85.3189C180.586 84.999 181.787 84.4089 180.167 84.5802C178.547 84.7516 176.271 85.6196 174.75 86.3583C175.806 85.6577 176.969 84.98 176.931 84.7592C176.892 84.5384 175.231 85.1018 173.187 86.1146C173.47 85.6311 173.851 85.079 172.212 85.9585C171.276 86.4378 170.435 87.0828 169.73 87.8622C169.73 87.8622 170.691 86.6057 170.641 86.3659C170.592 86.126 169.273 87.0855 168.823 88.1439C168.991 87.3824 168.293 87.1274 167.973 88.8254C167.653 90.5235 168.511 91.0185 168.511 91.0185C168.511 91.0185 173.847 90.9575 176.161 90.6377C178.474 90.3179 184.196 91.7875 186.772 92.8612Z" fill="#00A2A2"/>
<path d="M181.661 91.6086C182.824 91.8213 183.971 92.1178 185.091 92.4957C186.555 92.9221 187.15 93.2077 186.509 92.351C185.869 91.4944 184.085 89.3051 181.707 89.9334C181.244 89.2593 180.638 88.6953 179.933 88.2814C179.227 87.8675 178.439 87.6139 177.624 87.5385C176.1 87.4167 175.894 88.2162 175.894 88.2162C175.615 87.9375 175.279 87.7216 174.91 87.5831C174.54 87.4445 174.145 87.3865 173.752 87.4129C172.429 87.5119 172.353 88.3838 172.353 88.3838C171.986 88.1399 171.556 88.0073 171.115 88.0019C170.674 87.9965 170.241 88.1185 169.868 88.3533C168.484 89.1528 168.495 91.0641 168.495 91.0641C168.495 91.0641 171.545 91.2812 173.351 91.4258C175.158 91.5705 177.136 90.7786 181.661 91.6086Z" fill="#00A2A2"/>
<path opacity="0.3" d="M181.661 91.6086C182.824 91.8213 183.971 92.1178 185.091 92.4957C186.555 92.9221 187.15 93.2077 186.509 92.351C185.869 91.4944 184.085 89.3051 181.707 89.9334C181.244 89.2593 180.638 88.6953 179.933 88.2814C179.227 87.8675 178.439 87.6139 177.624 87.5385C176.1 87.4167 175.894 88.2162 175.894 88.2162C175.615 87.9375 175.279 87.7216 174.91 87.5831C174.54 87.4445 174.145 87.3865 173.752 87.4129C172.429 87.5119 172.353 88.3838 172.353 88.3838C171.986 88.1399 171.556 88.0073 171.115 88.0019C170.674 87.9965 170.241 88.1185 169.868 88.3533C168.484 89.1528 168.495 91.0641 168.495 91.0641C168.495 91.0641 171.545 91.2812 173.351 91.4258C175.158 91.5705 177.136 90.7786 181.661 91.6086Z" fill="black"/>
<path d="M170.641 92.0007C170.859 91.62 171.449 91.62 173.248 91.7875C174.821 91.8717 176.398 91.8106 177.96 91.6048C179.096 91.5316 180.236 91.5981 181.356 91.8028C181.924 91.8979 181.653 91.3344 180.929 90.5958C180.205 89.8572 178.741 89.328 177.529 89.9333C177.148 88.8787 175.349 88.5703 174.533 89.5107C173.115 88.6922 171.735 88.7493 170.805 90.177L170.641 92.0007Z" fill="#00A2A2"/>
<path opacity="0.4" d="M170.641 92.0007C170.859 91.62 171.449 91.62 173.248 91.7875C174.821 91.8717 176.398 91.8106 177.96 91.6048C179.096 91.5316 180.236 91.5981 181.356 91.8028C181.924 91.8979 181.653 91.3344 180.929 90.5958C180.205 89.8572 178.741 89.328 177.529 89.9333C177.148 88.8787 175.349 88.5703 174.533 89.5107C173.115 88.6922 171.735 88.7493 170.805 90.177L170.641 92.0007Z" fill="black"/>
<g opacity="0.2">
<path d="M171.979 86.9636C172.306 86.6962 172.655 86.458 173.024 86.2516C173.05 86.2326 173.05 86.2935 173.02 86.3049C172.665 86.5562 172.315 86.8075 171.972 87.0664C171.8 87.1944 171.637 87.333 171.484 87.4814L171.27 87.6908C171.205 87.7673 171.126 87.8306 171.038 87.8774V87.8203C171.157 87.6436 171.31 87.4922 171.487 87.3748L171.979 86.9636Z" fill="black"/>
<path d="M175.798 87.074C175.973 86.9177 176.176 86.7963 176.397 86.7161C176.424 86.7047 176.424 86.7656 176.393 86.7809C176.303 86.8545 176.209 86.9232 176.111 86.9865C176.016 87.0512 175.928 87.1197 175.829 87.1883C175.73 87.2568 175.635 87.3253 175.543 87.4015C175.469 87.4646 175.389 87.5195 175.303 87.5652V87.5271C175.448 87.3558 175.615 87.2036 175.798 87.074Z" fill="black"/>
<path d="M174.091 86.7885L174.373 86.5981H174.369C174.439 86.538 174.523 86.4973 174.613 86.4801V86.522C174.542 86.6123 174.454 86.6874 174.354 86.7428C174.274 86.8037 174.19 86.8608 174.11 86.9255L173.862 87.1159L173.733 87.2149L173.672 87.2606H173.603V87.2111C173.609 87.1842 173.623 87.1594 173.641 87.1388L173.698 87.0893L173.832 86.9827L174.091 86.7885Z" fill="black"/>
<path d="M186.528 88.9891C186.746 89.0159 186.961 89.0579 187.173 89.1148L187.161 89.0995C186.953 89.0495 186.741 89.0126 186.528 88.9891Z" fill="black"/>
<path d="M188.263 92.3967C188.244 92.3929 188.263 92.3701 188.263 92.3701H188.267C189.062 92.5908 189.829 92.9012 190.554 93.2952C190.919 93.4894 191.274 93.7026 191.625 93.9235C191.984 94.1344 192.327 94.3724 192.65 94.6354C192.653 94.6392 192.654 94.6437 192.655 94.6483C192.655 94.6529 192.654 94.6576 192.652 94.6618C192.65 94.6661 192.647 94.6697 192.644 94.6724C192.64 94.6751 192.636 94.6768 192.631 94.6773C192.288 94.4869 191.964 94.289 191.632 94.0567C191.301 93.8245 190.961 93.6379 190.618 93.4437C189.872 93.0139 189.082 92.663 188.263 92.3967Z" fill="black"/>
<path d="M183.715 88.6008C184.436 88.6356 185.152 88.7298 185.858 88.8825L185.861 88.8901C185.141 88.8445 184.447 88.7721 183.727 88.7264C183.006 88.6807 182.29 88.6655 181.569 88.6427C181.547 88.6427 181.569 88.6008 181.569 88.6008C182.284 88.5551 183.001 88.5551 183.715 88.6008Z" fill="black"/>
</g>
<path d="M172.124 96.1317C171.584 96.2824 171.026 96.3579 170.466 96.3564C169.513 96.383 168.179 96.0746 166.159 95.9452C166.159 94.7421 168.827 92.6252 171.019 92.8993C173.21 93.1734 174.03 95.3132 172.124 96.1317Z" fill="#00A2A2"/>
<g opacity="0.2">
<path d="M172.124 96.1317C171.584 96.2824 171.026 96.3579 170.466 96.3564C169.513 96.383 168.179 96.0746 166.159 95.9452C166.159 94.7421 168.827 92.6252 171.019 92.8993C173.21 93.1734 174.03 95.3132 172.124 96.1317Z" fill="#DCE34C"/>
</g>
<path d="M166.445 95.8386C164.808 94.3647 163.075 93.0012 161.257 91.7571C159.039 90.3484 155.337 88.9282 155.307 88.9282L155.025 88.7074C155.527 90.0015 156.225 91.2111 157.095 92.2939C158.189 93.661 159.67 94.6678 161.345 95.1837C163.026 95.6977 164.848 96.1051 166.178 96.1051H166.711L166.445 95.8386Z" fill="#DCE34C"/>
<path d="M162.035 93.912C161.345 92.9678 159.892 92.0084 157.784 91.1136C155.741 90.2303 155.326 89.1338 154.708 88.1172C154.209 87.2682 153.736 87.036 152.296 86.541C150.855 86.046 148.023 85.8938 144.52 85.5092C141.017 85.1247 132.212 84.0586 131.107 83.8111C130.443 83.6626 130.809 83.3619 131.869 83.4913C132.929 83.6208 139.111 84.1957 142.542 84.5041C140.327 84.1233 140.88 83.3619 142.199 83.4418C144.047 83.5332 145.816 83.8759 147.097 84.0358C145.995 83.4875 146.159 82.9202 147.26 82.9849C148.144 83.0038 149.019 83.1565 149.856 83.438C148.636 82.7984 149.746 82.0826 150.878 82.6499C150.516 81.8161 150.413 80.6168 151.164 80.712C150.153 78.4694 150.188 77.2587 150.912 77.5366C150.912 77.5366 149.719 73.9006 149.521 73.1696C149.323 72.4386 149.54 72.1721 150.009 73.3866C150.413 74.4451 153.024 81.4963 154.03 83.1867C155.036 84.8772 155.882 85.4711 157.079 85.8823C158.276 86.2935 163.075 86.8951 165.267 87.6527C167.607 88.4561 168.549 89.4156 170.123 89.861C171.057 90.1275 172.696 89.8267 174.003 90.9728C175.311 92.1188 175.272 93.8473 174.708 94.4793C174.224 95.0238 173.264 95.3931 172.696 95.0466C172.128 94.7001 172.357 94.2433 171.728 93.7064C171.099 93.1696 170.31 93.0858 169.601 93.8968C168.892 94.7078 167.939 96.0289 166.136 95.9375C164.333 95.8462 163.289 95.5644 162.035 93.912Z" fill="#00A2A2"/>
<path d="M165.29 87.6527C166.906 88.1058 168.293 89.1148 169.864 89.6973C170.912 90.059 172.101 89.8458 173.134 90.3331C174.659 90.9156 175.802 93.0325 174.743 94.4793C175.699 93.0287 174.571 91.0261 173.081 90.4549C172.052 89.9905 170.878 90.2075 169.818 89.8267C168.236 89.2328 166.891 88.1858 165.29 87.6527Z" fill="#00A2A2"/>
<path opacity="0.3" d="M165.29 87.6527C166.906 88.1058 168.293 89.1148 169.864 89.6973C170.912 90.059 172.101 89.8458 173.134 90.3331C174.659 90.9156 175.802 93.0325 174.743 94.4793C175.699 93.0287 174.571 91.0261 173.081 90.4549C172.052 89.9905 170.878 90.2075 169.818 89.8267C168.236 89.2328 166.891 88.1858 165.29 87.6527Z" fill="black"/>
<path d="M172.475 95.4426C172.368 95.5232 172.28 95.6272 172.22 95.7466C172.159 95.866 172.126 95.9978 172.124 96.1317C172.227 96.3564 173.012 96.6229 173.565 96.6038C173.84 96.6073 174.114 96.5622 174.373 96.4706C174.373 96.4706 174.373 96.1888 173.916 95.8728C173.466 95.6422 172.977 95.4963 172.475 95.4426Z" fill="#E0E0E0"/>
<path opacity="0.1" d="M172.475 95.4426C172.368 95.5232 172.28 95.6272 172.22 95.7466C172.159 95.866 172.126 95.9978 172.124 96.1317C172.227 96.3564 173.012 96.6229 173.565 96.6038C173.84 96.6073 174.114 96.5622 174.373 96.4706C174.373 96.4706 174.373 96.1888 173.916 95.8728C173.466 95.6422 172.977 95.4963 172.475 95.4426Z" fill="black"/>
<path d="M174.64 94.5745C174.358 94.4679 173.641 94.6925 173.195 94.8981C172.749 95.1037 172.376 95.3702 172.494 95.4654C172.612 95.5606 173.187 95.8271 173.855 96.1698C174.236 96.3602 174.998 96.9122 175.189 96.9313C175.379 96.9503 175.471 96.7104 175.414 96.3678C175.356 96.0251 175.097 94.9476 174.64 94.5745Z" fill="#E0E0E0"/>
<path d="M171.655 94.9476C171.655 94.7496 171.674 94.2661 171.301 94.0453C170.927 93.8245 170.573 94.1328 170.416 94.1709C170.421 94.4352 170.523 94.6886 170.702 94.8829C170.996 95.1608 171.423 94.9705 171.655 94.9476Z" fill="#00A2A2"/>
<path d="M165.206 93.8435C163.826 93.6569 162.309 93.3409 161.619 93.5389C160.929 93.7369 162.454 94.4222 162.454 94.4222C161.666 94.4417 160.885 94.5698 160.132 94.803C158.989 95.1837 159.511 95.8995 160.415 95.8538C158.829 96.581 158.379 97.3767 158.936 97.4186C159.492 97.4605 160.761 97.0036 160.761 97.0036C158.593 99.0976 158.516 100.152 158.909 100.221C159.477 100.316 161.043 98.6332 161.043 98.6332C159.995 101.409 159.683 103.75 159.812 104.649C159.942 105.547 160.354 105.346 160.662 103.823C160.944 102.482 161.596 100.43 161.596 100.43C160.918 104.264 160.929 106.057 161.043 107.203C161.158 108.35 161.634 108.072 161.787 106.975C161.939 105.879 162.206 103.956 162.473 102.787C162.256 104.64 162.167 106.507 162.206 108.372C162.29 109.575 162.427 110.131 162.625 110.211C162.824 110.291 162.934 109.865 163.006 108.422C163.079 106.979 163.289 105.532 163.289 105.532C163.289 107.915 163.334 109.122 163.422 110.032C163.51 110.942 163.803 111.445 164.051 111.445C164.299 111.445 164.238 110.303 164.283 108.913C164.329 107.523 164.424 106.328 164.424 106.328C164.427 108.085 164.669 109.833 165.141 111.525C165.56 112.888 166.113 113.223 166.113 112.515C166.113 111.807 165.903 109.72 165.972 108.292C166.269 110.497 166.311 111.106 166.803 112.515C167.211 113.657 167.504 113.836 167.714 113.931C168.095 114.087 167.965 113.227 167.714 111.216C168.282 113.577 168.793 115.069 169.357 115.545C169.921 116.021 169.993 115.481 169.807 114.849C169.425 113.547 169.128 111.803 169.128 111.803C169.639 113.326 170.062 114.521 170.397 115.229C170.733 115.938 171.247 116.661 171.659 116.672C172.071 116.684 171.834 115.877 171.491 114.769C172.456 116.775 172.753 117.499 173.755 118.218C174.518 118.782 174.548 117.933 173.95 116.775C172.787 114.284 171.769 111.727 170.9 109.119C170.26 107.07 165.206 93.8435 165.206 93.8435Z" fill="#00A2A2"/>
<path d="M165.206 93.8435C163.586 94.1633 162.019 95.4959 162.816 96.0251C162.073 97.5481 161.966 98.6903 162.789 98.6903C162.507 101.18 162.763 102.821 163.876 102.498C164.524 104.95 166.029 107.31 166.925 105.84C167.985 108.243 169.12 109.766 170.409 109.773C171.552 109.773 170.409 105.658 170.409 105.658L165.206 93.8435Z" fill="#00A2A2"/>
<path opacity="0.3" d="M165.206 93.8435C163.586 94.1633 162.019 95.4959 162.816 96.0251C162.073 97.5481 161.966 98.6903 162.789 98.6903C162.507 101.18 162.763 102.821 163.876 102.498C164.524 104.95 166.029 107.31 166.925 105.84C167.985 108.243 169.12 109.766 170.409 109.773C171.552 109.773 170.409 105.658 170.409 105.658L165.206 93.8435Z" fill="black"/>
<path d="M167.382 94.1557C166.586 94.6659 166.933 95.1951 167.466 95.5949C168 95.9946 168.61 96.8094 169.429 99.8096C170.249 102.81 170.535 104.816 170.531 105.521C170.527 106.225 168.77 105.631 167.302 102.707C167.043 103.51 165.423 103.602 164.779 99.6611C163.662 99.8743 163.178 97.647 164.497 96.4096C163.761 95.987 163.837 94.4298 165.191 93.8511L167.382 94.1557Z" fill="#00A2A2"/>
<path opacity="0.4" d="M167.382 94.1557C166.586 94.6659 166.933 95.1951 167.466 95.5949C168 95.9946 168.61 96.8094 169.429 99.8096C170.249 102.81 170.535 104.816 170.531 105.521C170.527 106.225 168.77 105.631 167.302 102.707C167.043 103.51 165.423 103.602 164.779 99.6611C163.662 99.8743 163.178 97.647 164.497 96.4096C163.761 95.987 163.837 94.4298 165.191 93.8511L167.382 94.1557Z" fill="black"/>
<path opacity="0.2" d="M161.68 96.7066C161.452 96.7598 161.226 96.8259 161.005 96.9046C161.005 96.9046 160.982 96.9427 161.005 96.9389C161.238 96.9084 161.463 96.8437 161.688 96.7942C161.924 96.7511 162.157 96.6926 162.385 96.6191V96.5962C162.145 96.5888 161.906 96.6262 161.68 96.7066ZM163.521 102.84C163.479 103.049 163.449 103.26 163.433 103.472L163.376 104.04C163.323 104.465 163.292 104.894 163.285 105.323C163.349 104.897 163.393 104.469 163.414 104.04C163.433 103.842 163.452 103.659 163.475 103.446C163.498 103.232 163.54 103.046 163.548 102.848C163.582 102.821 163.548 102.798 163.521 102.84ZM160.609 95.7967V95.8233C160.834 95.7662 161.059 95.6863 161.287 95.6254C161.65 95.5264 162.015 95.4731 162.381 95.3893V95.3665C161.775 95.4056 161.18 95.5512 160.624 95.7967H160.609ZM162.16 98.557C162.096 98.6696 162.046 98.7898 162.012 98.9149C161.962 99.0558 161.913 99.1928 161.867 99.3337C161.752 99.639 161.677 99.9575 161.642 100.282C161.642 100.282 161.642 100.282 161.661 100.282C161.752 100 161.817 99.7183 161.913 99.4175C161.954 99.2918 162 99.1624 162.046 99.0367C162.111 98.8917 162.16 98.7397 162.191 98.5837C162.191 98.5837 162.191 98.538 162.16 98.5646V98.557ZM162.073 97.7346C161.888 97.8229 161.718 97.937 161.566 98.0735C161.421 98.1925 161.284 98.3196 161.154 98.4542C161.291 98.3362 161.44 98.2182 161.573 98.1077C161.707 97.9973 161.913 97.8793 162.073 97.7575C162.073 97.7575 162.096 97.7042 162.073 97.7156V97.7346ZM168.732 109.724C168.702 109.514 168.655 109.306 168.591 109.103C168.603 109.337 168.632 109.57 168.678 109.8C168.716 110.013 168.755 110.227 168.8 110.44C168.88 110.855 168.964 111.262 169.082 111.662C169.082 111.681 169.101 111.662 169.101 111.662C169.037 111.224 168.949 110.794 168.865 110.36C168.835 110.147 168.793 109.945 168.747 109.724H168.732ZM164.455 104.603C164.424 104.857 164.405 105.111 164.398 105.365V105.726C164.383 105.876 164.383 106.026 164.398 106.176C164.398 106.195 164.417 106.176 164.421 106.176C164.439 106.039 164.448 105.902 164.447 105.764V105.384C164.468 105.119 164.476 104.853 164.47 104.588C164.47 104.55 164.447 104.561 164.444 104.588L164.455 104.603ZM171.026 113.272C170.904 112.93 170.786 112.583 170.645 112.237C170.405 111.54 170.18 110.824 169.948 110.135C169.948 110.086 169.89 110.135 169.898 110.169C170.073 110.87 170.279 111.567 170.516 112.252C170.634 112.599 170.756 112.941 170.897 113.284C171.009 113.642 171.156 113.989 171.335 114.319C171.335 114.338 171.362 114.319 171.358 114.297C171.273 113.947 171.161 113.604 171.022 113.272H171.026ZM167.344 107.961C167.314 107.658 167.259 107.357 167.18 107.063C167.18 107.04 167.157 107.063 167.157 107.063C167.162 107.381 167.195 107.698 167.257 108.011C167.302 108.342 167.348 108.673 167.39 109.004C167.447 109.665 167.542 110.323 167.676 110.973C167.676 110.992 167.695 110.973 167.695 110.973C167.669 110.296 167.595 109.621 167.474 108.955C167.432 108.627 167.382 108.296 167.333 107.961H167.344ZM165.976 106.773C165.976 106.767 165.973 106.761 165.969 106.757C165.965 106.753 165.959 106.75 165.953 106.75C165.947 106.75 165.941 106.753 165.937 106.757C165.932 106.761 165.93 106.767 165.93 106.773C165.911 106.989 165.911 107.205 165.93 107.421C165.927 107.633 165.941 107.846 165.972 108.056V107.386C165.972 107.162 165.972 106.971 165.945 106.773H165.976Z" fill="black"/>
<path opacity="0.2" d="M149.345 85.3074C147.969 85.098 146.59 84.9267 145.21 84.7439C144.447 84.6488 143.708 84.5231 142.942 84.4622C142.911 84.4622 142.908 84.5269 142.942 84.5307C143.616 84.6792 144.306 84.7516 144.989 84.8429L147.039 85.1094C148.396 85.2846 149.746 85.4902 151.087 85.7224C151.834 85.8595 152.578 86.0054 153.317 86.1603C153.317 86.1603 153.317 86.1603 153.317 86.1412C152.018 85.7567 150.69 85.4778 149.345 85.3074ZM151.796 84.4774C152.36 84.8125 152.94 85.1856 153.493 85.5092C153.493 85.5092 153.515 85.4902 153.493 85.4826C152.967 85.0547 152.406 84.6726 151.815 84.3404C151.272 84.0058 150.703 83.7131 150.115 83.4647C150.081 83.4647 150.07 83.5256 150.096 83.5332C150.672 83.853 151.24 84.1424 151.796 84.4774ZM152.524 85.4293C152.04 85.2465 151.556 85.0676 151.064 84.9191C149.848 84.5415 148.604 84.2576 147.344 84.07C147.344 84.07 147.318 84.1043 147.344 84.1081C148.587 84.4622 149.856 84.7135 151.095 85.0866C151.575 85.2313 152.052 85.3683 152.513 85.5435C152.974 85.7186 153.466 85.9242 153.95 86.1108C153.969 86.1108 153.98 86.0689 153.95 86.0575C153.489 85.8203 153.012 85.6131 152.524 85.4369V85.4293ZM154.506 84.5802C153.719 83.4892 153.047 82.3191 152.501 81.0889C151.991 79.9467 151.598 78.755 151.023 77.6623C151.023 77.6432 151 77.6623 151 77.6889C151.427 78.8921 151.903 80.0876 152.418 81.2488C152.941 82.4695 153.633 83.6113 154.472 84.6411C154.503 84.664 154.522 84.6183 154.51 84.6031L154.506 84.5802ZM152.681 84.0129C152.18 83.5391 151.64 83.1074 151.068 82.7222C151.038 82.7032 151.026 82.7755 151.045 82.7908C151.613 83.2591 152.189 83.7007 152.7 84.2071C153.21 84.7135 153.66 85.1894 154.179 85.6196C154.202 85.6196 154.209 85.5854 154.202 85.5701C153.737 85.014 153.227 84.497 152.677 84.0244L152.681 84.0129ZM151.297 80.8795C151.278 80.8452 151.255 80.8795 151.267 80.9176C152.113 82.4988 153.157 83.9662 154.373 85.2846C154.392 85.3074 154.407 85.2579 154.396 85.2389C153.296 83.8327 152.263 82.3796 151.297 80.8795Z" fill="black"/>
</svg>
